HIERARCHY
ROOT SpineBase
{
  OFFSET 0.000000 0.000000 0.000000
  CHANNELS 6 Xposition Yposition Zposition Zrotation Xrotation Yrotation
  JOINT SpineMid
  {
    OFFSET -0.000000 31.717605 0.000000
    CHANNELS 3 Zrotation Xrotation Yrotation
    JOINT SpineShoulder
    {
      OFFSET 0.190213 23.638955 -0.820794
      CHANNELS 3 Zrotation Xrotation Yrotation
      JOINT Neck
      {
        OFFSET 0.162134 7.835075 -0.606329
        CHANNELS 3 Zrotation Xrotation Yrotation
        JOINT Head
        {
          OFFSET -5.548488 14.006204 -0.643839
          CHANNELS 3 Zrotation Xrotation Yrotation
          End Site
          {
            OFFSET 0 0 0
          }
        }
      }
      JOINT ShoulderLeft
      {
        OFFSET -17.341192 -6.268565 6.491143
        CHANNELS 3 Zrotation Xrotation Yrotation
        JOINT ElbowLeft
        {
          OFFSET -1.092241 -27.310974 1.161594
          CHANNELS 3 Zrotation Xrotation Yrotation
          JOINT WristLeft
          {
            OFFSET -0.101205 -22.799193 -0.876007
            CHANNELS 3 Zrotation Xrotation Yrotation
            JOINT HandLeft
            {
              OFFSET -0.334157 -8.152394 0.736661
              CHANNELS 3 Zrotation Xrotation Yrotation
              JOINT HandTipLeft
              {
                OFFSET -0.100754 -7.345196 1.017274
                CHANNELS 3 Zrotation Xrotation Yrotation
                End Site
                {
                  OFFSET 0 0 0
                }
              }
              JOINT ThumbLeft
              {
                OFFSET 4.520503 0.290597 -3.500222
                CHANNELS 3 Zrotation Xrotation Yrotation
                End Site
                {
                  OFFSET 0 0 0
                }
              }
            }
          }
        }
      }
      JOINT ShoulderRight
      {
        OFFSET 15.053781 -3.427733 -7.903290
        CHANNELS 3 Zrotation Xrotation Yrotation
        JOINT ElbowRight
        {
          OFFSET 6.012026 -26.362462 -3.692898
          CHANNELS 3 Zrotation Xrotation Yrotation
          JOINT WristRight
          {
            OFFSET -0.539806 -25.253879 -6.216022
            CHANNELS 3 Zrotation Xrotation Yrotation
            JOINT HandRight
            {
              OFFSET 0.854413 -7.026001 1.096709
              CHANNELS 3 Zrotation Xrotation Yrotation
              JOINT HandTipRight
              {
                OFFSET -0.136776 -8.265704 -0.430731
                CHANNELS 3 Zrotation Xrotation Yrotation
                End Site
                {
                  OFFSET 0 0 0
                }
              }
              JOINT ThumbRight
              {
                OFFSET -2.966724 1.117426 -1.001913
                CHANNELS 3 Zrotation Xrotation Yrotation
                End Site
                {
                  OFFSET 0 0 0
                }
              }
            }
          }
        }
      }
    }
  }
  JOINT HipLeft
  {
    OFFSET -6.285116 -0.138768 -1.246270
    CHANNELS 3 Zrotation Xrotation Yrotation
    JOINT KneeLeft
    {
      OFFSET 1.847247 -33.933693 6.523094
      CHANNELS 3 Zrotation Xrotation Yrotation
      JOINT AnkleLeft
      {
        OFFSET 4.792449 -37.724546 11.085583
        CHANNELS 3 Zrotation Xrotation Yrotation
        JOINT FootLeft
        {
          OFFSET -1.621759 -8.046196 -5.782949
          CHANNELS 3 Zrotation Xrotation Yrotation
          End Site
          {
            OFFSET 0 0 0
          }
        }
      }
    }
  }
  JOINT HipRight
  {
    OFFSET 7.761239 2.117180 -6.025108
    CHANNELS 3 Zrotation Xrotation Yrotation
    JOINT KneeRight
    {
      OFFSET 9.328347 -34.186697 -1.043428
      CHANNELS 3 Zrotation Xrotation Yrotation
      JOINT AnkleRight
      {
        OFFSET 4.085839 -37.670554 5.426181
        CHANNELS 3 Zrotation Xrotation Yrotation
        JOINT FootRight
        {
          OFFSET -1.107137 -7.817615 -6.594713
          CHANNELS 3 Zrotation Xrotation Yrotation
          End Site
          {
            OFFSET 0 0 0
          }
        }
      }
    }
  }
}
MOTION
Frames: 10
Frame Time: 0.033333
-67.815503 81.617992 335.228901 0.036028 -2.455630 31.328483 0.201484 -0.046713 -31.304564 0.270709 -0.051767 0.056647 7.948608 -1.802128 -1.374175 0.000000 0.000000 0.000000 -7.678621 3.024945 -0.064152 -5.414963 -0.685632 0.712217 -49.206567 35.078983 13.464411 33.572608 7.483250 16.362451 0.000000 0.000000 0.000000 0.000000 0.000000 0.000000 -13.002392 15.146198 6.562612 -87.167741 16.054739 29.744102 -4.868384 28.084918 -20.741007 32.190866 10.846104 42.081696 0.000000 0.000000 0.000000 0.000000 0.000000 0.000000 1.590247 11.476447 -31.835461 5.681538 -4.531192 1.657332 0.322335 -1.056395 -2.234679 0.000000 0.000000 0.000000 -2.403405 5.117516 -30.789432 2.855900 -5.508455 -1.176357 -18.679602 32.349680 16.373768 0.000000 0.000000 0.000000
-67.983458 81.671905 335.432837 0.014229 -2.583459 32.085802 0.211268 -0.012629 -32.062758 0.271606 -0.033918 0.055789 7.953394 -0.908739 -1.128940 0.000000 0.000000 0.000000 -7.655436 3.083390 -0.054703 -6.319730 -0.907081 0.713241 -42.972872 31.642146 10.101730 30.534164 7.775893 13.525800 0.000000 0.000000 0.000000 0.000000 0.000000 0.000000 -11.696862 15.017091 6.116348 -92.848205 15.529419 32.180498 1.554464 24.115370 -23.219638 27.927622 12.958477 42.750852 0.000000 0.000000 0.000000 0.000000 0.000000 0.000000 1.878339 11.587468 -32.610814 5.667577 -4.289552 1.692233 2.185322 -5.619489 -2.647951 0.000000 0.000000 0.000000 -2.288686 5.145783 -31.576577 2.989405 -5.145706 -1.087256 -20.817733 33.179405 18.056507 0.000000 0.000000 0.000000
-68.130531 81.757027 335.604988 0.016042 -2.670724 32.644363 0.218153 0.009455 -32.620965 0.271216 -0.027465 0.056025 7.630254 0.248051 -0.801456 0.000000 0.000000 0.000000 -7.649569 3.138304 -0.048258 -6.397437 -1.585999 0.637690 -42.255784 31.831754 10.330827 29.953664 6.684675 12.889494 0.000000 0.000000 0.000000 0.000000 0.000000 0.000000 -11.361863 15.144287 6.047283 -95.544112 14.185208 32.053683 5.259208 22.677078 -23.217703 24.670470 15.512585 44.530600 0.000000 0.000000 0.000000 0.000000 0.000000 0.000000 2.045624 11.614635 -33.180897 5.661436 -3.951541 1.732894 0.534904 -2.107902 -2.400449 0.000000 0.000000 0.000000 -2.143077 5.091551 -32.173601 2.946228 -4.738839 -1.005915 -20.600563 32.510376 17.733343 0.000000 0.000000 0.000000
-68.221675 81.847488 335.657676 0.075158 -2.704817 32.920542 0.218894 0.011325 -32.893576 0.267194 -0.024989 0.058548 7.222629 1.169356 -0.531904 0.000000 0.000000 0.000000 -7.710905 3.164778 -0.048045 -6.277421 -1.957049 0.593774 -39.172793 33.360227 10.444423 27.147131 5.424194 11.914613 0.000000 0.000000 0.000000 0.000000 0.000000 0.000000 -11.337473 15.320266 6.071928 -92.203264 14.205865 29.917329 4.497798 23.346156 -21.002988 24.125965 12.049914 39.579470 0.000000 0.000000 0.000000 0.000000 0.000000 0.000000 2.026207 11.516800 -33.455282 5.615712 -3.539412 1.754023 -0.489946 -0.209064 -2.167997 0.000000 0.000000 0.000000 -2.090538 5.006930 -32.485752 2.842830 -4.411065 -0.943561 -16.876580 28.757525 14.515234 0.000000 0.000000 0.000000
-68.305648 81.898662 335.616916 0.126801 -2.680507 32.744862 0.217969 0.001230 -32.714965 0.266566 -0.025894 0.060811 6.632474 2.106416 -0.232090 0.000000 0.000000 0.000000 -7.769404 3.158427 -0.052415 -5.724692 -1.337727 0.651679 -34.664799 30.687693 7.757308 25.304257 6.520671 10.639390 0.000000 0.000000 0.000000 0.000000 0.000000 0.000000 -11.556762 15.336163 6.126918 -87.040577 13.699091 26.677347 1.305818 26.110748 -17.278471 24.750225 8.742283 35.661325 0.000000 0.000000 0.000000 0.000000 0.000000 0.000000 1.894446 11.247715 -33.258144 5.497044 -3.087844 1.748323 -0.852074 -0.214922 -1.999411 0.000000 0.000000 0.000000 -2.036807 4.886625 -32.333394 2.724440 -4.204776 -0.899586 -13.979864 25.447958 12.051123 0.000000 0.000000 0.000000
-68.422870 81.938056 335.642490 0.155582 -2.687519 32.818385 0.217913 -0.002229 -32.786741 0.265911 -0.021959 0.062076 6.072682 3.129817 0.098339 0.000000 0.000000 0.000000 -7.801929 3.161885 -0.053425 -5.025488 -0.674702 0.704127 -30.316369 26.611237 4.945989 23.353257 8.907500 9.280463 0.000000 0.000000 0.000000 0.000000 0.000000 0.000000 -11.935228 15.202963 6.190090 -81.392537 13.039867 23.624885 -1.902150 28.931355 -12.973301 25.052323 3.341663 29.987009 0.000000 0.000000 0.000000 0.000000 0.000000 0.000000 2.016221 11.132348 -33.314216 5.276344 -2.861853 1.709536 -0.055207 -0.025000 -2.586032 0.000000 0.000000 0.000000 -1.928178 4.837040 -32.418261 2.637902 -4.103439 -0.873789 -12.187801 22.853135 10.572708 0.000000 0.000000 0.000000
-68.548437 81.954946 335.672443 0.145444 -2.722891 32.746315 0.210979 -0.001050 -32.715022 0.263686 -0.015522 0.061477 5.621396 4.096050 0.410278 0.000000 0.000000 0.000000 -7.784327 3.191702 -0.048933 -4.204061 -0.123600 0.733464 -26.841870 23.140290 2.993647 21.582047 10.184604 8.023803 0.000000 0.000000 0.000000 0.000000 0.000000 0.000000 -12.107737 14.777358 6.107279 -76.546026 12.277661 21.402601 -3.516830 31.992414 -7.221573 23.809286 -5.064452 21.678458 0.000000 0.000000 0.000000 0.000000 0.000000 0.000000 2.226883 11.048620 -33.220247 5.160623 -2.918044 1.688748 1.145846 -0.772493 -3.338667 0.000000 0.000000 0.000000 -1.750345 4.853526 -32.337984 2.594208 -4.167246 -0.872289 -11.359877 21.479054 9.857997 0.000000 0.000000 0.000000
-68.640339 81.984380 335.656880 0.175265 -2.686054 32.545510 0.213817 0.005156 -32.512874 0.261183 -0.007298 0.061934 5.193267 4.763842 0.664006 0.000000 0.000000 0.000000 -7.810664 3.139876 -0.056047 -3.332596 0.104387 0.724667 -25.653934 22.116215 2.408665 20.607417 10.519719 7.530976 0.000000 0.000000 0.000000 0.000000 0.000000 0.000000 -12.255922 14.116912 5.934366 -72.302534 11.803279 19.961695 -6.087066 33.836277 -4.357829 24.939597 -8.366495 19.085566 0.000000 0.000000 0.000000 0.000000 0.000000 0.000000 2.117239 10.976870 -33.011341 5.323842 -2.798011 1.760229 -0.112427 -0.196214 -2.807067 0.000000 0.000000 0.000000 -1.715386 4.850742 -32.124910 2.610973 -4.249535 -0.873201 -11.602869 21.358123 10.007188 0.000000 0.000000 0.000000
-68.740904 81.959892 335.769819 0.209563 -2.639625 32.216042 0.218058 0.010080 -32.181878 0.260774 0.000957 0.062693 4.747276 4.935975 0.756388 0.000000 0.000000 0.000000 -7.844777 3.079616 -0.064644 -2.397233 0.383849 0.714040 -25.602921 18.206267 1.137826 20.428108 14.562233 7.144596 0.000000 0.000000 0.000000 0.000000 0.000000 0.000000 -12.403151 13.581740 5.798786 -69.070565 11.495381 18.972620 -7.062942 34.768705 -2.515600 23.411475 -14.219987 13.686425 0.000000 0.000000 0.000000 0.000000 0.000000 0.000000 2.052869 10.978767 -32.670225 5.426733 -2.836425 1.805050 0.346951 -1.082870 -3.086617 0.000000 0.000000 0.000000 -1.660366 4.987538 -31.739495 2.716857 -4.542146 -0.911921 -12.906676 22.556184 10.965243 0.000000 0.000000 0.000000
-68.851123 81.914664 335.960990 0.229701 -2.597783 31.820124 0.219328 0.015655 -31.785239 0.258920 0.007180 0.062765 4.458077 4.707143 0.705435 0.000000 0.000000 0.000000 -7.860978 3.027030 -0.071396 -1.439304 0.571049 0.691457 -26.407838 19.143131 1.374451 20.565397 14.983376 7.499498 0.000000 0.000000 0.000000 0.000000 0.000000 0.000000 -12.397159 13.076084 5.632166 -66.863235 11.557311 18.616881 -7.734282 35.327697 -1.360789 22.323661 -19.518701 9.237741 0.000000 0.000000 0.000000 0.000000 0.000000 0.000000 2.087430 11.027269 -32.257759 5.388315 -2.942251 1.806019 0.466506 -2.266486 -3.004064 0.000000 0.000000 0.000000 -1.513665 5.213050 -31.258282 2.815053 -4.938715 -0.974995 -15.151281 24.874765 12.658220 0.000000 0.000000 0.000000
